<svg width="24" height="24" viewBox="0 0 24 24" fill="none" xmlns="http://www.w3.org/2000/svg">
<path d="M12.54 8.29C12.633 8.19627 12.7436 8.12188 12.8654 8.07111C12.9873 8.02034 13.118 7.9942 13.25 7.9942C13.382 7.9942 13.5127 8.02034 13.6346 8.07111C13.7564 8.12188 13.867 8.19627 13.96 8.29L16.96 11.29C17.0537 11.383 17.1281 11.4936 17.1789 11.6154C17.2297 11.7373 17.2558 11.868 17.2558 12C17.2558 12.132 17.2297 12.2627 17.1789 12.3846C17.1281 12.5064 17.0537 12.617 16.96 12.71L13.96 15.71C13.867 15.8037 13.7564 15.8781 13.6346 15.9289C13.5127 15.9797 13.382 16.0058 13.25 16.0058C13.118 16.0058 12.9873 15.9797 12.8654 15.9289C12.7436 15.8781 12.633 15.8037 12.54 15.71C12.4463 15.617 12.3719 15.5064 12.3211 15.3846C12.2703 15.2627 12.2442 15.132 12.2442 15C12.2442 14.868 12.2703 14.7373 12.3211 14.6154C12.3719 14.4936 12.4463 14.383 12.54 14.29L14.84 12L12.54 9.71C12.4463 9.61704 12.3719 9.50644 12.3211 9.38458C12.2703 9.26272 12.2442 9.13201 12.2442 9C12.2442 8.86799 12.2703 8.73728 12.3211 8.61542C12.3719 8.49356 12.4463 8.38296 12.54 8.29ZM9.34 12L7 9.71C6.8117 9.5217 6.70591 9.2663 6.70591 9C6.70591 8.7337 6.8117 8.4783 7 8.29C7.1883 8.1017 7.4437 7.99591 7.71 7.99591C7.9763 7.99591 8.2317 8.1017 8.42 8.29L11.42 11.29C11.5137 11.383 11.5881 11.4936 11.6389 11.6154C11.6897 11.7373 11.7158 11.868 11.7158 12C11.7158 12.132 11.6897 12.2627 11.6389 12.3846C11.5881 12.5064 11.5137 12.617 11.42 12.71L8.42 15.71C8.32704 15.8037 8.21644 15.8781 8.09458 15.9289C7.97272 15.9797 7.84201 16.0058 7.71 16.0058C7.57799 16.0058 7.44728 15.9797 7.32542 15.9289C7.20356 15.8781 7.09296 15.8037 7 15.71C6.90627 15.617 6.83188 15.5064 6.78111 15.3846C6.73034 15.2627 6.7042 15.132 6.7042 15C6.7042 14.868 6.73034 14.7373 6.78111 14.6154C6.83188 14.4936 6.90627 14.383 7 14.29L9.34 12Z" fill="#333333"/>
</svg>
