<svg width="30" height="30" viewBox="0 0 30 30" fill="none" xmlns="http://www.w3.org/2000/svg">
<path d="M19.9999 12.17C19.8126 11.9838 19.5591 11.8792 19.2949 11.8792C19.0308 11.8792 18.7773 11.9838 18.5899 12.17L14.9999 15.71L11.4599 12.17C11.2726 11.9838 11.0191 11.8792 10.7549 11.8792C10.4908 11.8792 10.2373 11.9838 10.0499 12.17C9.95622 12.263 9.88183 12.3736 9.83106 12.4954C9.78029 12.6173 9.75415 12.748 9.75415 12.88C9.75415 13.012 9.78029 13.1427 9.83106 13.2646C9.88183 13.3864 9.95622 13.497 10.0499 13.59L14.2899 17.83C14.3829 17.9237 14.4935 17.9981 14.6154 18.0489C14.7372 18.0997 14.8679 18.1258 14.9999 18.1258C15.132 18.1258 15.2627 18.0997 15.3845 18.0489C15.5064 17.9981 15.617 17.9237 15.7099 17.83L19.9999 13.59C20.0937 13.497 20.1681 13.3864 20.2188 13.2646C20.2696 13.1427 20.2957 13.012 20.2957 12.88C20.2957 12.748 20.2696 12.6173 20.2188 12.4954C20.1681 12.3736 20.0937 12.263 19.9999 12.17Z" fill="#333333"/>
</svg>
