<svg width="20" height="20" viewBox="0 0 20 20" fill="none" xmlns="http://www.w3.org/2000/svg">
<path d="M8.09168 8.50834L10 6.59168L11.9083 8.50834C11.9858 8.58645 12.078 8.64844 12.1795 8.69075C12.2811 8.73306 12.39 8.75484 12.5 8.75484C12.61 8.75484 12.7189 8.73306 12.8205 8.69075C12.922 8.64844 13.0142 8.58645 13.0917 8.50834C13.1698 8.43087 13.2318 8.33871 13.2741 8.23716C13.3164 8.13561 13.3382 8.02669 13.3382 7.91668C13.3382 7.80667 13.3164 7.69774 13.2741 7.59619C13.2318 7.49465 13.1698 7.40248 13.0917 7.32501L10.5917 4.82501C10.5142 4.7469 10.422 4.68491 10.3205 4.6426C10.2189 4.60029 10.11 4.57851 10 4.57851C9.89 4.57851 9.78108 4.60029 9.67953 4.6426C9.57798 4.68491 9.48581 4.7469 9.40835 4.82501L6.90835 7.32501C6.75143 7.48193 6.66327 7.69476 6.66327 7.91668C6.66327 8.13859 6.75143 8.35142 6.90835 8.50834C7.06527 8.66526 7.27809 8.75342 7.50001 8.75342C7.72193 8.75342 7.93476 8.66526 8.09168 8.50834ZM11.9083 12.325L10 14.2417L8.09168 12.325C8.01398 12.2473 7.92174 12.1857 7.82022 12.1436C7.7187 12.1016 7.60989 12.0799 7.50001 12.0799C7.39013 12.0799 7.28132 12.1016 7.1798 12.1436C7.07829 12.1857 6.98604 12.2473 6.90835 12.325C6.83065 12.4027 6.76901 12.4949 6.72696 12.5965C6.68491 12.698 6.66327 12.8068 6.66327 12.9167C6.66327 13.0266 6.68491 13.1354 6.72696 13.2369C6.76901 13.3384 6.83065 13.4306 6.90835 13.5083L9.40835 16.0083C9.48581 16.0864 9.57798 16.1484 9.67953 16.1908C9.78108 16.2331 9.89 16.2548 10 16.2548C10.11 16.2548 10.2189 16.2331 10.3205 16.1908C10.422 16.1484 10.5142 16.0864 10.5917 16.0083L13.0917 13.5083C13.2486 13.3514 13.3368 13.1386 13.3368 12.9167C13.3368 12.6948 13.2486 12.4819 13.0917 12.325C12.9348 12.1681 12.7219 12.0799 12.5 12.0799C12.2781 12.0799 12.0653 12.1681 11.9083 12.325Z" fill="#666666"/>
</svg>
