<svg width="16" height="16" viewBox="0 0 16 16" fill="none" xmlns="http://www.w3.org/2000/svg">
<path d="M8 2C6.46183 2.00439 4.98409 2.59935 3.872 3.662V2.6C3.872 2.44087 3.80879 2.28826 3.69626 2.17574C3.58374 2.06321 3.43113 2 3.272 2C3.11287 2 2.96026 2.06321 2.84774 2.17574C2.73521 2.28826 2.672 2.44087 2.672 2.6V5.3C2.672 5.45913 2.73521 5.61174 2.84774 5.72426C2.96026 5.83678 3.11287 5.9 3.272 5.9H5.972C6.13113 5.9 6.28374 5.83678 6.39626 5.72426C6.50878 5.61174 6.572 5.45913 6.572 5.3C6.572 5.14087 6.50878 4.98826 6.39626 4.87574C6.28374 4.76321 6.13113 4.7 5.972 4.7H4.532C5.30347 3.89381 6.3317 3.38159 7.43992 3.2514C8.54814 3.12121 9.66709 3.38118 10.6044 3.98663C11.5417 4.59207 12.2388 5.50515 12.5758 6.56887C12.9128 7.6326 12.8687 8.78051 12.451 9.81524C12.0334 10.85 11.2683 11.7069 10.2873 12.2386C9.30629 12.7703 8.17069 12.9436 7.07573 12.7288C5.98077 12.5139 4.99488 11.9243 4.28755 11.0613C3.58023 10.1983 3.19567 9.11583 3.2 8C3.2 7.84087 3.13679 7.68826 3.02426 7.57573C2.91174 7.46321 2.75913 7.4 2.6 7.4C2.44087 7.4 2.28826 7.46321 2.17574 7.57573C2.06321 7.68826 2 7.84087 2 8C2 9.18669 2.35189 10.3467 3.01118 11.3334C3.67047 12.3201 4.60754 13.0891 5.7039 13.5433C6.80025 13.9974 8.00665 14.1162 9.17054 13.8847C10.3344 13.6532 11.4035 13.0818 12.2426 12.2426C13.0818 11.4035 13.6532 10.3344 13.8847 9.17054C14.1162 8.00665 13.9974 6.80025 13.5433 5.7039C13.0891 4.60754 12.3201 3.67047 11.3334 3.01118C10.3467 2.35189 9.18669 2 8 2ZM8 5.6C7.84087 5.6 7.68826 5.66321 7.57573 5.77574C7.46321 5.88826 7.4 6.04087 7.4 6.2V8C7.4 8.15913 7.46321 8.31174 7.57573 8.42426C7.68826 8.53678 7.84087 8.6 8 8.6H9.2C9.35913 8.6 9.51174 8.53678 9.62426 8.42426C9.73678 8.31174 9.8 8.15913 9.8 8C9.8 7.84087 9.73678 7.68826 9.62426 7.57573C9.51174 7.46321 9.35913 7.4 9.2 7.4H8.6V6.2C8.6 6.04087 8.53678 5.88826 8.42426 5.77574C8.31174 5.66321 8.15913 5.6 8 5.6Z" fill="#F7B500"/>
</svg>
