<svg width="16" height="16" viewBox="0 0 16 16" fill="none" xmlns="http://www.w3.org/2000/svg">
<path d="M9.8 7.4H8.6V5C8.6 4.84087 8.53679 4.68826 8.42427 4.57574C8.31174 4.46321 8.15913 4.4 8 4.4C7.84087 4.4 7.68826 4.46321 7.57574 4.57574C7.46322 4.68826 7.4 4.84087 7.4 5V8C7.4 8.15913 7.46322 8.31174 7.57574 8.42426C7.68826 8.53678 7.84087 8.6 8 8.6H9.8C9.95913 8.6 10.1117 8.53678 10.2243 8.42426C10.3368 8.31174 10.4 8.15913 10.4 8C10.4 7.84087 10.3368 7.68826 10.2243 7.57573C10.1117 7.46321 9.95913 7.4 9.8 7.4ZM8 2C6.81331 2 5.65328 2.35189 4.66658 3.01118C3.67989 3.67047 2.91085 4.60754 2.45673 5.7039C2.0026 6.80025 1.88378 8.00665 2.11529 9.17054C2.3468 10.3344 2.91825 11.4035 3.75736 12.2426C4.59648 13.0818 5.66557 13.6532 6.82946 13.8847C7.99335 14.1162 9.19975 13.9974 10.2961 13.5433C11.3925 13.0891 12.3295 12.3201 12.9888 11.3334C13.6481 10.3467 14 9.18669 14 8C13.9983 6.40924 13.3656 4.88413 12.2407 3.75929C11.1159 2.63445 9.59076 2.00175 8 2ZM8 12.8C7.05065 12.8 6.12262 12.5185 5.33326 11.9911C4.54391 11.4636 3.92868 10.714 3.56538 9.83688C3.20208 8.95979 3.10702 7.99467 3.29223 7.06357C3.47744 6.13246 3.9346 5.27718 4.60589 4.60589C5.27718 3.93459 6.13246 3.47744 7.06357 3.29223C7.99468 3.10702 8.9598 3.20208 9.83688 3.56538C10.714 3.92868 11.4636 4.54391 11.9911 5.33326C12.5185 6.12262 12.8 7.05065 12.8 8C12.7984 9.27255 12.2922 10.4925 11.3924 11.3924C10.4925 12.2922 9.27255 12.7984 8 12.8Z" fill="#FF6364"/>
</svg>
