<svg width="16" height="16" viewBox="0 0 16 16" fill="none" xmlns="http://www.w3.org/2000/svg">
<path d="M9.632 6.074L7.058 8.654L6.068 7.664C6.01421 7.60119 5.94802 7.55018 5.87358 7.51416C5.79914 7.47815 5.71807 7.45791 5.63543 7.45472C5.5528 7.45153 5.4704 7.46545 5.39341 7.49562C5.31641 7.52578 5.24648 7.57154 5.18801 7.63001C5.12954 7.68848 5.08378 7.75841 5.05362 7.8354C5.02345 7.9124 5.00953 7.9948 5.01272 8.07743C5.01591 8.16006 5.03615 8.24114 5.07217 8.31558C5.10818 8.39002 5.15919 8.45621 5.222 8.51L6.632 9.926C6.68807 9.98161 6.75456 10.0256 6.82766 10.0555C6.90076 10.0853 6.97904 10.1005 7.058 10.1C7.21541 10.0993 7.36625 10.0368 7.478 9.926L10.478 6.926C10.5342 6.87022 10.5789 6.80386 10.6093 6.73074C10.6398 6.65763 10.6555 6.57921 10.6555 6.5C10.6555 6.42079 10.6398 6.34237 10.6093 6.26925C10.5789 6.19614 10.5342 6.12978 10.478 6.074C10.3656 5.96225 10.2135 5.89952 10.055 5.89952C9.89649 5.89952 9.74442 5.96225 9.632 6.074ZM8 2C6.81331 2 5.65328 2.35189 4.66658 3.01118C3.67989 3.67047 2.91085 4.60754 2.45673 5.7039C2.0026 6.80025 1.88378 8.00665 2.11529 9.17054C2.3468 10.3344 2.91825 11.4035 3.75736 12.2426C4.59648 13.0818 5.66557 13.6532 6.82946 13.8847C7.99335 14.1162 9.19975 13.9974 10.2961 13.5433C11.3925 13.0891 12.3295 12.3201 12.9888 11.3334C13.6481 10.3467 14 9.18669 14 8C14 7.21207 13.8448 6.43185 13.5433 5.7039C13.2417 4.97594 12.7998 4.31451 12.2426 3.75736C11.6855 3.20021 11.0241 2.75825 10.2961 2.45672C9.56815 2.15519 8.78793 2 8 2ZM8 12.8C7.05065 12.8 6.12262 12.5185 5.33326 11.9911C4.54391 11.4636 3.92868 10.714 3.56538 9.83688C3.20208 8.95979 3.10702 7.99467 3.29223 7.06357C3.47744 6.13246 3.9346 5.27718 4.60589 4.60589C5.27718 3.9346 6.13246 3.47744 7.06357 3.29223C7.99468 3.10702 8.9598 3.20208 9.83688 3.56538C10.714 3.92868 11.4636 4.54391 11.9911 5.33326C12.5185 6.12262 12.8 7.05065 12.8 8C12.8 9.27304 12.2943 10.4939 11.3941 11.3941C10.4939 12.2943 9.27304 12.8 8 12.8Z" fill="#54B5FF"/>
</svg>
