<svg width="16" height="16" viewBox="0 0 16 16" fill="none" xmlns="http://www.w3.org/2000/svg">
<path d="M4 2.75H12V13.75H4V2.75Z" fill="#E6E7E8"/>
<path d="M2.5 2.75C0.84325 2.75 0 3.98125 0 5.5V11C0 12.5188 0.84325 13.75 2.5 13.75H4V2.75H2.5Z" fill="#EC1C24"/>
<path d="M13.5 2.75H12V13.75H13.5C15.1567 13.75 16 12.5188 16 11V5.5C16 3.98125 15.1567 2.75 13.5 2.75Z" fill="#EC1C24"/>
<path fill-rule="evenodd" clip-rule="evenodd" d="M11.065 8.16025C10.9508 8.1085 10.9315 8.072 10.9655 7.94575C11.0503 7.63 11.1375 7.3155 11.2233 7.00025C11.2305 6.9745 11.237 6.948 11.2468 6.91025C11.1408 6.9315 11.0418 6.9505 10.9428 6.972C10.7425 7.0145 10.5435 7.05775 10.3438 7.1C10.2133 7.12725 10.1535 7.09075 10.1165 6.96175C10.0818 6.83975 10.0475 6.7175 9.99176 6.578C9.97901 6.599 9.96976 6.62325 9.95351 6.641C9.72476 6.89925 9.49476 7.15675 9.26451 7.415C9.19326 7.4935 9.11401 7.52775 9.05801 7.49675C8.97576 7.45025 8.97876 7.368 8.99226 7.29125C9.05301 6.956 9.11601 6.6215 9.17851 6.28625C9.22426 6.043 9.27001 5.801 9.31701 5.5475C9.29326 5.5565 9.27726 5.561 9.26301 5.568C9.13351 5.635 9.00551 5.70325 8.87576 5.76875C8.71676 5.8485 8.63676 5.82225 8.55376 5.6685C8.37801 5.34275 8.20376 5.0165 8.02851 4.6905C8.01951 4.6745 8.01351 4.6585 7.99976 4.638L7.97101 4.6905C7.79626 5.0165 7.62176 5.34275 7.44626 5.6685C7.36301 5.82225 7.28276 5.84875 7.12376 5.76875C6.99401 5.70325 6.86601 5.635 6.73651 5.568C6.72226 5.561 6.70626 5.5565 6.68251 5.5475C6.72951 5.801 6.77526 6.043 6.82101 6.28625C6.88351 6.6205 6.94676 6.955 7.00701 7.29125C7.02101 7.36825 7.02376 7.4505 6.94151 7.49675C6.88526 7.52775 6.80626 7.4935 6.73526 7.415C6.50476 7.15675 6.27476 6.89925 6.04601 6.641C6.02976 6.62325 6.02026 6.599 6.00776 6.578C5.95201 6.71775 5.91776 6.83975 5.88301 6.96175C5.84601 7.09075 5.78576 7.12725 5.65576 7.1C5.45601 7.05775 5.25676 7.0145 5.05676 6.972C4.95776 6.9505 4.85876 6.9315 4.75276 6.91025C4.76251 6.948 4.76876 6.97475 4.77626 7.00025C4.86201 7.3155 4.94926 7.63025 5.03401 7.94575C5.06801 8.07225 5.04876 8.1085 4.93451 8.16025C4.82876 8.20825 4.72326 8.259 4.61151 8.31125C4.63151 8.32925 4.64276 8.34 4.65526 8.35025C4.92126 8.56675 5.18726 8.7825 5.45376 8.999C5.71151 9.2085 5.96826 9.41775 6.22626 9.6265C6.31651 9.69925 6.34626 9.78775 6.30901 9.89825C6.28801 9.96325 6.26926 10.0283 6.24976 10.0935C6.22626 10.1703 6.20326 10.2475 6.17726 10.3353C6.43301 10.299 6.67451 10.2653 6.91776 10.2315C7.20301 10.1923 7.48801 10.152 7.77401 10.116C7.87201 10.1033 7.94476 10.178 7.94076 10.2753C7.91926 10.791 7.86951 11.3733 7.86601 11.8618H8.13351C8.13001 11.3733 8.08051 10.7913 8.05901 10.2753C8.05451 10.178 8.12751 10.1033 8.22551 10.116C8.51151 10.152 8.79651 10.1923 9.08176 10.2315C9.32501 10.2653 9.56651 10.2993 9.82226 10.3353C9.79626 10.2475 9.77326 10.1703 9.74976 10.0935C9.73026 10.028 9.71151 9.96325 9.69051 9.89825C9.65326 9.78775 9.68301 9.69925 9.77326 9.6265C10.0315 9.41775 10.288 9.2085 10.5458 8.999C10.8123 8.78275 11.0783 8.56675 11.3443 8.35025C11.3568 8.34 11.368 8.32925 11.388 8.31125C11.276 8.25875 11.171 8.20825 11.065 8.16025Z" fill="#EC1C24"/>
</svg>
