<svg width="16" height="16" viewBox="0 0 16 16" fill="none" xmlns="http://www.w3.org/2000/svg">
<path d="M16 10.75C16 12.2688 15.1567 13.5 13.5 13.5H2.5C0.84325 13.5 0 12.2688 0 10.75V5.25C0 3.73125 0.84325 2.5 2.5 2.5H13.5C15.1567 2.5 16 3.73125 16 5.25V10.75Z" fill="#EC1C24"/>
<path d="M3.24276 4.164L3.77751 5.25L4.97626 5.42375L4.10951 6.2675L4.31376 7.4625L3.24276 6.89875L2.17151 7.4625L2.37601 6.2675L1.51001 5.42375L2.70676 5.25L3.24276 4.164Z" fill="#F9CB38"/>
<path d="M5.12676 3.24849L5.27501 3.54974L5.60851 3.59799L5.36776 3.83274L5.42401 4.16399L5.12676 4.00749L4.82976 4.16399L4.88601 3.83274L4.64551 3.59799L4.97826 3.54974L5.12676 3.24849Z" fill="#F9CB38"/>
<path d="M6.08952 4.332L6.23802 4.633L6.57002 4.6815L6.33027 4.91675L6.38677 5.2475L6.08952 5.09125L5.79252 5.2475L5.84877 4.91675L5.60852 4.6815L5.94077 4.633L6.08952 4.332Z" fill="#F9CB38"/>
<path d="M6.08952 6.07095L6.23802 6.3727L6.57002 6.42095L6.33027 6.6557L6.38677 6.98695L6.08952 6.83095L5.79252 6.98695L5.84877 6.6557L5.60852 6.42095L5.94077 6.3727L6.08952 6.07095Z" fill="#F9CB38"/>
<path d="M5.12676 7.29247L5.27501 7.59371L5.60851 7.64171L5.36776 7.87621L5.42401 8.20796L5.12676 8.05246L4.82976 8.20796L4.88601 7.87621L4.64551 7.64171L4.97826 7.59371L5.12676 7.29247Z" fill="#F9CB38"/>
</svg>
