<svg width="16" height="16" viewBox="0 0 16 16" fill="none" xmlns="http://www.w3.org/2000/svg">
<path d="M6.5 4.43999V5.28499H15.9913C15.978 5.01249 15.9495 4.66799 15.8475 4.43999" fill="#EC1C24"/>
<path d="M15.4 3.595H6.5V4.44H15.8475C15.746 4.12475 15.595 3.83725 15.4 3.595Z" fill="#E6E7E8"/>
<path d="M13.5 2.75H6.5V3.595H15.4C14.9827 3.0725 14.296 2.75 13.5 2.75Z" fill="#EC1C24"/>
<path d="M15.9913 5.28499H6.5V6.12999H16V5.56674C16 5.51649 15.9967 5.46749 15.9952 5.41824C15.9942 5.40474 15.9928 5.36999 15.9913 5.28499Z" fill="#E6E7E8"/>
<path d="M6.5 6.97499H16V6.12999H6.5V6.97499Z" fill="#EC1C24"/>
<path d="M6.5 7.81998H16V6.97498H6.5V7.81998Z" fill="#E6E7E8"/>
<path d="M6.5 7.81998H16V8.66498H6.5V7.81998Z" fill="#EC1C24"/>
<path d="M0 8.66498V9.50998H16V8.66498H6.5H0Z" fill="#E6E7E8"/>
<path d="M0 9.50998H16V10.355H0V9.50998Z" fill="#EC1C24"/>
<path d="M0.00125 10.8747C0.00125 10.8747 -0.001 11.0795 0.005 11.2H15.995C16.002 11.0765 15.9987 10.8747 15.9987 10.8747L16 10.355H0L0.00125 10.8747Z" fill="#E6E7E8"/>
<path d="M2.49996 13.75H13.5C14.2982 13.75 14.9617 13.46 15.415 12.89H0.582458C1.05046 13.4725 1.72646 13.75 2.49871 13.75" fill="#EC1C24"/>
<path d="M0.583745 12.89H15.4162C15.614 12.6387 15.7617 12.3519 15.8512 12.045H0.151245C0.242519 12.3509 0.389574 12.6374 0.584995 12.89" fill="#E6E7E8"/>
<path d="M0.150005 12.045H15.85C15.9319 11.7701 15.9806 11.4864 15.995 11.2H0.00500488C0.0297549 11.489 0.0527549 11.7072 0.150005 12.045Z" fill="#EC1C24"/>
<path d="M6.5 2.75H2.5C0.84325 2.75 0 3.98125 0 5.5V8.665H6.5V2.75Z" fill="#176496"/>
<path d="M0.698717 4.24399L0.834717 4.13949L0.970467 4.24399L0.917717 4.07599L1.05297 3.97324H0.885967L0.834217 3.80449L0.782717 3.97324H0.615967L0.751717 4.07599L0.698717 4.24399Z" fill="white"/>
<path d="M1.59801 4.24399L1.73401 4.13949L1.86976 4.24399L1.81726 4.07599L1.95226 3.97324H1.78551L1.73376 3.80449L1.68226 3.97324H1.51501L1.65076 4.07599L1.59801 4.24399Z" fill="white"/>
<path d="M2.58926 4.24399L2.72501 4.13949L2.86101 4.24399L2.80826 4.07599L2.94326 3.97324H2.77751L2.72501 3.80449L2.67326 3.97324H2.50751L2.64176 4.07599L2.58926 4.24399Z" fill="white"/>
<path d="M3.57329 4.24399L3.70904 4.13949L3.84504 4.24399L3.79254 4.07599L3.92754 3.97324H3.76004L3.70904 3.80449L3.65754 3.97324H3.49054L3.62604 4.07599L3.57329 4.24399Z" fill="white"/>
<path d="M4.56077 4.24399L4.69677 4.13949L4.83252 4.24399L4.78002 4.07599L4.91527 3.97324H4.74802L4.69652 3.80449L4.64502 3.97324H4.47827L4.61327 4.07599L4.56077 4.24399Z" fill="white"/>
<path d="M1.17778 4.68277L1.31353 4.57852L1.44928 4.68277L1.39703 4.51502L1.53203 4.41227H1.36503L1.31328 4.24377L1.26253 4.41227H1.09503L1.23028 4.51502L1.17778 4.68277Z" fill="white"/>
<path d="M2.07652 4.68277L2.21227 4.57852L2.34802 4.68277L2.29552 4.51502L2.43052 4.41227H2.26252L2.21227 4.24377L2.16052 4.41227H1.99377L2.12902 4.51502L2.07652 4.68277Z" fill="white"/>
<path d="M3.06775 4.68277L3.20325 4.57852L3.339 4.68277L3.2865 4.51502L3.42175 4.41227H3.255L3.20325 4.24377L3.1515 4.41227H2.9845L3.11975 4.51502L3.06775 4.68277Z" fill="white"/>
<path d="M4.05125 4.68277L4.18725 4.57852L4.32325 4.68277L4.27 4.51502L4.4055 4.41227H4.23875L4.187 4.24377L4.13575 4.41227H3.96875L4.104 4.51502L4.05125 4.68277Z" fill="white"/>
<path d="M5.03999 4.68277L5.17474 4.57852L5.31049 4.68277L5.25749 4.51502L5.39299 4.41227H5.22649L5.17449 4.24377L5.12324 4.41227H4.95624L5.09149 4.51502L5.03999 4.68277Z" fill="white"/>
<path d="M5.59676 4.24399L5.73251 4.13949L5.86851 4.24399L5.81576 4.07599L5.95076 3.97324H5.78501L5.73226 3.80449L5.68076 3.97324H5.51251L5.64926 4.07599L5.59676 4.24399Z" fill="white"/>
<path d="M0.686266 7.75499L0.822266 7.65174L0.958016 7.75499L0.905516 7.58849L1.04052 7.48549L0.873766 7.48599L0.821766 7.31749L0.770766 7.48599L0.603516 7.48549L0.738766 7.58849L0.686266 7.75499Z" fill="white"/>
<path d="M1.585 7.75499L1.72075 7.65174L1.85675 7.75499L1.804 7.58849L1.939 7.48549L1.7725 7.48599L1.7205 7.31749L1.66925 7.48599L1.5025 7.48549L1.6375 7.58849L1.585 7.75499Z" fill="white"/>
<path d="M2.57628 7.75499L2.71203 7.65174L2.84803 7.75499L2.79528 7.58849L2.93028 7.48549L2.76253 7.48599L2.71178 7.31749L2.66028 7.48599L2.49353 7.48549L2.62878 7.58849L2.57628 7.75499Z" fill="white"/>
<path d="M3.56029 7.75499L3.69604 7.65174L3.83179 7.75499L3.78004 7.58849L3.91429 7.48549L3.74729 7.48599L3.69579 7.31749L3.64429 7.48599L3.47754 7.48549L3.61254 7.58849L3.56029 7.75499Z" fill="white"/>
<path d="M4.54753 7.75499L4.68353 7.65174L4.81953 7.75499L4.76753 7.58849L4.90178 7.48549L4.73503 7.48599L4.68328 7.31749L4.63203 7.48599L4.46503 7.48549L4.60003 7.58849L4.54753 7.75499Z" fill="white"/>
<path d="M5.5835 7.75499L5.71925 7.65174L5.85525 7.75499L5.8025 7.58849L5.93775 7.48549L5.77 7.48599L5.719 7.31749L5.6675 7.48599L5.5 7.48549L5.636 7.58849L5.5835 7.75499Z" fill="white"/>
<path d="M0.69951 5.12204L0.83551 5.01753L0.97126 5.12204L0.91851 4.95403L1.05376 4.85128L0.88676 4.85178L0.83501 4.68279L0.78351 4.85178L0.61676 4.85128L0.75251 4.95403L0.69951 5.12204Z" fill="white"/>
<path d="M1.59801 5.12204L1.73401 5.01753L1.86976 5.12204L1.81726 4.95403L1.95226 4.85128L1.78551 4.85178L1.73376 4.68279L1.68226 4.85178L1.51501 4.85128L1.65076 4.95403L1.59801 5.12204Z" fill="white"/>
<path d="M2.58926 5.12204L2.72501 5.01753L2.86101 5.12204L2.80826 4.95403L2.94326 4.85128L2.77751 4.85178L2.72501 4.68279L2.67326 4.85178L2.50751 4.85128L2.64176 4.95403L2.58926 5.12204Z" fill="white"/>
<path d="M3.57329 5.12204L3.70904 5.01753L3.84504 5.12204L3.79254 4.95403L3.92754 4.85128L3.76004 4.85178L3.70904 4.68279L3.65754 4.85178L3.49054 4.85128L3.62604 4.95403L3.57329 5.12204Z" fill="white"/>
<path d="M4.56077 5.12204L4.69677 5.01753L4.83252 5.12204L4.78002 4.95403L4.91527 4.85128L4.74802 4.85178L4.69652 4.68279L4.64502 4.85178L4.47827 4.85128L4.61327 4.95403L4.56077 5.12204Z" fill="white"/>
<path d="M1.17778 5.56098L1.31353 5.45673L1.44928 5.56098L1.39703 5.39323L1.53203 5.28998H1.36503L1.31328 5.12198L1.26253 5.28998H1.09503L1.23028 5.39323L1.17778 5.56098Z" fill="white"/>
<path d="M2.07652 5.56098L2.21227 5.45673L2.34802 5.56098L2.29552 5.39323L2.43052 5.28998H2.26252L2.21227 5.12198L2.16052 5.28998H1.99377L2.12902 5.39323L2.07652 5.56098Z" fill="white"/>
<path d="M3.06775 5.56098L3.20325 5.45673L3.339 5.56098L3.2865 5.39323L3.42175 5.28998H3.255L3.20325 5.12198L3.1515 5.28998H2.9845L3.11975 5.39323L3.06775 5.56098Z" fill="white"/>
<path d="M4.05125 5.56098L4.18725 5.45673L4.32325 5.56098L4.27 5.39323L4.4055 5.28998H4.23875L4.187 5.12198L4.13575 5.28998H3.96875L4.104 5.39323L4.05125 5.56098Z" fill="white"/>
<path d="M5.03999 5.56098L5.17474 5.45673L5.31049 5.56098L5.25749 5.39323L5.39299 5.28998H5.22649L5.17449 5.12198L5.12324 5.28998H4.95624L5.09149 5.39323L5.03999 5.56098Z" fill="white"/>
<path d="M5.59676 5.12204L5.73251 5.01753L5.86851 5.12204L5.81576 4.95403L5.95076 4.85128L5.78501 4.85178L5.73226 4.68279L5.68076 4.85178L5.51251 4.85128L5.64926 4.95403L5.59676 5.12204Z" fill="white"/>
<path d="M0.686266 5.99999L0.822266 5.89574L0.958016 5.99999L0.905266 5.83249L1.04052 5.72949L0.873516 5.72999L0.821766 5.56099L0.770766 5.72999L0.603516 5.72949L0.738766 5.83249L0.686266 5.99999Z" fill="white"/>
<path d="M1.585 5.99999L1.72075 5.89574L1.85675 5.99999L1.804 5.83249L1.939 5.72949L1.7725 5.72999L1.7205 5.56099L1.66925 5.72999L1.5025 5.72949L1.63725 5.83249L1.585 5.99999Z" fill="white"/>
<path d="M2.57628 5.99999L2.71203 5.89574L2.84778 5.99999L2.79528 5.83249L2.93028 5.72949L2.76253 5.72999L2.71178 5.56099L2.66028 5.72999L2.49353 5.72949L2.62878 5.83249L2.57628 5.99999Z" fill="white"/>
<path d="M3.56029 5.99999L3.69579 5.89574L3.83179 5.99999L3.78004 5.83249L3.91429 5.72949L3.74729 5.72999L3.69579 5.56099L3.64429 5.72999L3.47754 5.72949L3.61254 5.83249L3.56029 5.99999Z" fill="white"/>
<path d="M4.54753 5.99999L4.68353 5.89574L4.81928 5.99999L4.76753 5.83249L4.90178 5.72949L4.73478 5.72999L4.68328 5.56099L4.63203 5.72999L4.46503 5.72949L4.60003 5.83249L4.54753 5.99999Z" fill="white"/>
<path d="M1.16448 6.439L1.30023 6.335L1.43598 6.439L1.38373 6.2725L1.51848 6.169H1.35148L1.29998 6L1.24873 6.169H1.08173L1.21698 6.2725L1.16448 6.439Z" fill="white"/>
<path d="M2.06322 6.439L2.19897 6.335L2.33472 6.439L2.28222 6.2725L2.41722 6.169H2.24997L2.19872 6L2.14722 6.169H1.98022L2.11572 6.2725L2.06322 6.439Z" fill="white"/>
<path d="M3.05481 6.439L3.19006 6.335L3.32606 6.439L3.27256 6.2725L3.40856 6.169H3.24181L3.19006 6L3.13856 6.169H2.97156L3.10681 6.2725L3.05481 6.439Z" fill="white"/>
<path d="M4.03751 6.439L4.174 6.335L4.31 6.439L4.25751 6.2725L4.39225 6.169H4.22551L4.17376 6L4.12251 6.169H3.95551L4.09076 6.2725L4.03751 6.439Z" fill="white"/>
<path d="M5.02505 6.439L5.16155 6.335L5.29755 6.439L5.2448 6.2725L5.3803 6.169H5.21355L5.16155 6L5.11005 6.169H4.94305L5.0783 6.2725L5.02505 6.439Z" fill="white"/>
<path d="M5.5835 5.99999L5.71925 5.89574L5.855 5.99999L5.8025 5.83249L5.93775 5.72949L5.77 5.72999L5.719 5.56099L5.6675 5.72999L5.5 5.72949L5.636 5.83249L5.5835 5.99999Z" fill="white"/>
<path d="M0.686266 6.87826L0.822266 6.77501L0.958016 6.87826L0.905266 6.71051L1.04052 6.60751L0.873516 6.60801L0.821766 6.43901L0.770766 6.60801L0.603516 6.60751L0.738766 6.71051L0.686266 6.87826Z" fill="white"/>
<path d="M1.585 6.87826L1.72075 6.77501L1.85675 6.87826L1.804 6.71051L1.939 6.60751L1.7725 6.60801L1.7205 6.43901L1.66925 6.60801L1.5025 6.60751L1.63725 6.71051L1.585 6.87826Z" fill="white"/>
<path d="M2.57628 6.87826L2.71203 6.77501L2.84778 6.87826L2.79528 6.71051L2.93028 6.60751L2.76253 6.60801L2.71178 6.43901L2.66028 6.60801L2.49353 6.60751L2.62878 6.71051L2.57628 6.87826Z" fill="white"/>
<path d="M3.56029 6.87826L3.69579 6.77501L3.83179 6.87826L3.78004 6.71051L3.91429 6.60751L3.74729 6.60801L3.69579 6.43901L3.64429 6.60801L3.47754 6.60751L3.61254 6.71051L3.56029 6.87826Z" fill="white"/>
<path d="M4.54753 6.87826L4.68353 6.77501L4.81928 6.87826L4.76753 6.71051L4.90178 6.60751L4.73478 6.60801L4.68328 6.43901L4.63203 6.60801L4.46503 6.60751L4.60003 6.71051L4.54753 6.87826Z" fill="white"/>
<path d="M1.16448 7.31745L1.30023 7.21295L1.43598 7.31745L1.38373 7.14945L1.51848 7.04745H1.35148L1.29998 6.8782L1.24873 7.04745H1.08173L1.21698 7.14945L1.16448 7.31745Z" fill="white"/>
<path d="M2.06322 7.31745L2.19897 7.21295L2.33472 7.31745L2.28222 7.14945L2.41722 7.04745H2.24997L2.19872 6.8782L2.14722 7.04745H1.98022L2.11572 7.14945L2.06322 7.31745Z" fill="white"/>
<path d="M3.05481 7.31745L3.19006 7.21295L3.32606 7.31745L3.27256 7.14945L3.40856 7.04745H3.24181L3.19006 6.8782L3.13856 7.04745H2.97156L3.10681 7.14945L3.05481 7.31745Z" fill="white"/>
<path d="M4.03751 7.31745L4.174 7.21295L4.31 7.31745L4.25751 7.14945L4.39225 7.04745H4.22551L4.17376 6.8782L4.12251 7.04745H3.95551L4.09076 7.14945L4.03751 7.31745Z" fill="white"/>
<path d="M5.02505 7.31745L5.16155 7.21295L5.29755 7.31745L5.2448 7.14945L5.3803 7.04745H5.21355L5.16155 6.8782L5.11005 7.04745H4.94305L5.0783 7.14945L5.02505 7.31745Z" fill="white"/>
<path d="M5.5835 6.87826L5.71925 6.77501L5.855 6.87826L5.8025 6.71051L5.93775 6.60751L5.77 6.60801L5.719 6.43901L5.6675 6.60801L5.5 6.60751L5.636 6.71051L5.5835 6.87826Z" fill="white"/>
</svg>
