<svg width="24" height="24" viewBox="0 0 24 24" fill="none" xmlns="http://www.w3.org/2000/svg">
<path d="M12 5C10.6155 5 9.26215 5.41054 8.11101 6.17971C6.95987 6.94888 6.06266 8.04213 5.53285 9.32121C5.00303 10.6003 4.86441 12.0078 5.13451 13.3656C5.4046 14.7235 6.07129 15.9708 7.05026 16.9497C8.02922 17.9287 9.2765 18.5954 10.6344 18.8655C11.9922 19.1356 13.3997 18.997 14.6788 18.4672C15.9579 17.9373 17.0511 17.0401 17.8203 15.889C18.5895 14.7378 19 13.3845 19 12C19 11.0807 18.8189 10.1705 18.4672 9.32121C18.1154 8.47194 17.5998 7.70026 16.9497 7.05025C16.2997 6.40024 15.5281 5.88463 14.6788 5.53284C13.8295 5.18106 12.9193 5 12 5ZM12 17.6C10.8924 17.6 9.80972 17.2716 8.88881 16.6562C7.96789 16.0409 7.25013 15.1663 6.82628 14.143C6.40243 13.1198 6.29153 11.9938 6.50761 10.9075C6.72368 9.8212 7.25703 8.82337 8.0402 8.0402C8.82338 7.25703 9.8212 6.72368 10.9075 6.5076C11.9938 6.29153 13.1198 6.40242 14.143 6.82627C15.1663 7.25012 16.0409 7.96789 16.6562 8.88881C17.2716 9.80972 17.6 10.8924 17.6 12C17.6 13.4852 17.01 14.9096 15.9598 15.9598C14.9096 17.01 13.4852 17.6 12 17.6ZM14.8 11.3H12.7V9.2C12.7 9.01435 12.6263 8.8363 12.495 8.70502C12.3637 8.57375 12.1857 8.5 12 8.5C11.8144 8.5 11.6363 8.57375 11.505 8.70502C11.3738 8.8363 11.3 9.01435 11.3 9.2V11.3H9.2C9.01435 11.3 8.8363 11.3737 8.70503 11.505C8.57375 11.6363 8.5 11.8143 8.5 12C8.5 12.1856 8.57375 12.3637 8.70503 12.495C8.8363 12.6262 9.01435 12.7 9.2 12.7H11.3V14.8C11.3 14.9856 11.3738 15.1637 11.505 15.295C11.6363 15.4262 11.8144 15.5 12 15.5C12.1857 15.5 12.3637 15.4262 12.495 15.295C12.6263 15.1637 12.7 14.9856 12.7 14.8V12.7H14.8C14.9857 12.7 15.1637 12.6262 15.295 12.495C15.4263 12.3637 15.5 12.1856 15.5 12C15.5 11.8143 15.4263 11.6363 15.295 11.505C15.1637 11.3737 14.9857 11.3 14.8 11.3Z" fill="#666666"/>
</svg>
