<?xml version="1.0" standalone="no"?><!DOCTYPE svg PUBLIC "-//W3C//DTD SVG 1.1//EN" "http://www.w3.org/Graphics/SVG/1.1/DTD/svg11.dtd"><svg t="1610149043621" class="icon" viewBox="0 0 1024 1024" version="1.1" xmlns="http://www.w3.org/2000/svg" p-id="933" xmlns:xlink="http://www.w3.org/1999/xlink" width="200" height="200"><defs><style type="text/css"></style></defs><path d="M177.230568 433.230568c76.130864 0 137.847161 61.714987 137.847161 137.847161v295.383407H39.382097V571.076419c0-76.129555 61.717606-137.845852 137.847161-137.845851z m0 78.769432c-32.300522 0-58.546087 25.923437-59.069872 58.10087l-0.007857 0.975549v216.615284h118.155458V571.076419c0-32.300522-25.923437-58.546087-58.10087-59.068562l-0.976859-0.007857zM984.615284 945.230568c21.751488 0 39.384716 17.633228 39.384716 39.384716C1024 1006.366772 1006.366772 1024 984.615284 1024H39.384716C17.633228 1024 0 1006.366772 0 984.615284c0-21.750179 17.633228-39.384716 39.384716-39.384716h945.230568zM512 0c76.130864 0 137.847161 61.714987 137.847161 137.847161v728.613975H374.152839V137.847161C374.152839 61.716297 435.870445 0 512 0z m0 78.769432c-32.300522 0-58.546087 25.923437-59.069872 58.10087l-0.007857 0.97555v649.845851h118.154148V137.845852c0-32.300522-25.923437-58.546087-58.09956-59.069872l-0.976859-0.006548zM846.769432 275.691703c76.129555 0 137.847161 61.716297 137.847161 137.847161v452.922272h-275.694322V413.538864c0-76.130864 61.716297-137.847161 137.847161-137.847161z m0 78.769433c-32.301831 0-58.547396 25.923437-59.069872 58.100869l-0.007857 0.976859v374.152839h118.154149v-374.152839c0-32.301831-25.923437-58.547396-58.10087-59.069872l-0.97555-0.007856z" fill="#979797" p-id="934"></path></svg>