<svg width="24" height="24" viewBox="0 0 24 24" fill="none" xmlns="http://www.w3.org/2000/svg">
<path d="M9.75 10.4H10.5C10.6989 10.4 10.8897 10.3157 11.0303 10.1657C11.171 10.0157 11.25 9.81217 11.25 9.6C11.25 9.38783 11.171 9.18434 11.0303 9.03431C10.8897 8.88429 10.6989 8.8 10.5 8.8H9.75C9.55109 8.8 9.36032 8.88429 9.21967 9.03431C9.07902 9.18434 9 9.38783 9 9.6C9 9.81217 9.07902 10.0157 9.21967 10.1657C9.36032 10.3157 9.55109 10.4 9.75 10.4ZM9.75 12C9.55109 12 9.36032 12.0843 9.21967 12.2343C9.07902 12.3843 9 12.5878 9 12.8C9 13.0122 9.07902 13.2157 9.21967 13.3657C9.36032 13.5157 9.55109 13.6 9.75 13.6H14.25C14.4489 13.6 14.6397 13.5157 14.7803 13.3657C14.921 13.2157 15 13.0122 15 12.8C15 12.5878 14.921 12.3843 14.7803 12.2343C14.6397 12.0843 14.4489 12 14.25 12H9.75ZM18 9.552C17.9922 9.47851 17.9771 9.4061 17.955 9.336V9.264C17.9189 9.18174 17.8708 9.10613 17.8125 9.04L13.3125 4.24C13.2505 4.17777 13.1796 4.12646 13.1025 4.088C13.0801 4.08461 13.0574 4.08461 13.035 4.088C12.9588 4.04139 12.8747 4.01148 12.7875 4H8.25C7.65326 4 7.08097 4.25286 6.65901 4.70294C6.23705 5.15303 6 5.76348 6 6.4V17.6C6 18.2365 6.23705 18.847 6.65901 19.2971C7.08097 19.7471 7.65326 20 8.25 20H15.75C16.3467 20 16.919 19.7471 17.341 19.2971C17.7629 18.847 18 18.2365 18 17.6V9.6V9.552ZM13.5 6.728L15.4425 8.8H14.25C14.0511 8.8 13.8603 8.71571 13.7197 8.56569C13.579 8.41566 13.5 8.21217 13.5 8V6.728ZM16.5 17.6C16.5 17.8122 16.421 18.0157 16.2803 18.1657C16.1397 18.3157 15.9489 18.4 15.75 18.4H8.25C8.05109 18.4 7.86032 18.3157 7.71967 18.1657C7.57902 18.0157 7.5 17.8122 7.5 17.6V6.4C7.5 6.18783 7.57902 5.98434 7.71967 5.83431C7.86032 5.68429 8.05109 5.6 8.25 5.6H12V8C12 8.63652 12.2371 9.24697 12.659 9.69706C13.081 10.1471 13.6533 10.4 14.25 10.4H16.5V17.6ZM14.25 15.2H9.75C9.55109 15.2 9.36032 15.2843 9.21967 15.4343C9.07902 15.5843 9 15.7878 9 16C9 16.2122 9.07902 16.4157 9.21967 16.5657C9.36032 16.7157 9.55109 16.8 9.75 16.8H14.25C14.4489 16.8 14.6397 16.7157 14.7803 16.5657C14.921 16.4157 15 16.2122 15 16C15 15.7878 14.921 15.5843 14.7803 15.4343C14.6397 15.2843 14.4489 15.2 14.25 15.2Z" fill="#666666"/>
</svg>
