<svg width="16" height="16" viewBox="0 0 16 16" fill="none" xmlns="http://www.w3.org/2000/svg">
<path d="M8 9.5C7.81458 9.5 7.63333 9.55499 7.47916 9.658C7.32498 9.76101 7.20482 9.90743 7.13387 10.0787C7.06291 10.25 7.04434 10.4385 7.08052 10.6204C7.11669 10.8023 7.20598 10.9693 7.33709 11.1004C7.4682 11.2315 7.63525 11.3208 7.81711 11.357C7.99896 11.3932 8.18746 11.3746 8.35877 11.3036C8.53007 11.2327 8.67649 11.1125 8.77951 10.9584C8.88252 10.8042 8.9375 10.6229 8.9375 10.4375C8.9375 10.1889 8.83873 9.95041 8.66292 9.77459C8.4871 9.59877 8.24864 9.5 8 9.5ZM8 8.375C8.19892 8.375 8.38968 8.29599 8.53033 8.15533C8.67099 8.01468 8.75 7.82392 8.75 7.625V5.375C8.75 5.17609 8.67099 4.98532 8.53033 4.84467C8.38968 4.70402 8.19892 4.625 8 4.625C7.80109 4.625 7.61033 4.70402 7.46967 4.84467C7.32902 4.98532 7.25 5.17609 7.25 5.375V7.625C7.25 7.82392 7.32902 8.01468 7.46967 8.15533C7.61033 8.29599 7.80109 8.375 8 8.375ZM8 14C6.81331 14 5.65328 13.6481 4.66658 12.9888C3.67989 12.3295 2.91085 11.3925 2.45673 10.2961C2.0026 9.19975 1.88378 7.99335 2.11529 6.82946C2.3468 5.66557 2.91825 4.59648 3.75736 3.75736C4.59648 2.91825 5.66558 2.3468 6.82946 2.11529C7.99335 1.88378 9.19975 2.0026 10.2961 2.45673C11.3925 2.91085 12.3295 3.67989 12.9888 4.66658C13.6481 5.65328 14 6.81331 14 8C13.998 9.59069 13.3652 11.1157 12.2405 12.2405C11.1157 13.3652 9.59069 13.998 8 14Z" fill="#FF6364"/>
<path d="M7.47915 9.658C7.63332 9.55498 7.81458 9.5 8 9.5C8.24864 9.5 8.4871 9.59877 8.66291 9.77459C8.83873 9.9504 8.9375 10.1889 8.9375 10.4375C8.9375 10.6229 8.88252 10.8042 8.7795 10.9583C8.67649 11.1125 8.53007 11.2327 8.35877 11.3036C8.18746 11.3746 7.99896 11.3932 7.8171 11.357C7.63525 11.3208 7.4682 11.2315 7.33709 11.1004C7.20598 10.9693 7.11669 10.8023 7.08051 10.6204C7.04434 10.4385 7.06291 10.25 7.13386 10.0787C7.20482 9.90743 7.32498 9.76101 7.47915 9.658Z" fill="white"/>
<path d="M8.53033 8.15533C8.38968 8.29598 8.19891 8.375 8 8.375C7.80109 8.375 7.61032 8.29598 7.46967 8.15533C7.32902 8.01468 7.25 7.82391 7.25 7.625V5.375C7.25 5.17609 7.32902 4.98532 7.46967 4.84467C7.61032 4.70402 7.80109 4.625 8 4.625C8.19891 4.625 8.38968 4.70402 8.53033 4.84467C8.67098 4.98532 8.75 5.17609 8.75 5.375V7.625C8.75 7.82391 8.67098 8.01468 8.53033 8.15533Z" fill="white"/>
</svg>
