<svg width="24" height="24" viewBox="0 0 24 24" fill="none" xmlns="http://www.w3.org/2000/svg">
<path d="M12 10.4C11.6836 10.4 11.3743 10.4938 11.1111 10.6696C10.848 10.8455 10.6429 11.0953 10.5218 11.3877C10.4007 11.6801 10.3691 12.0018 10.4308 12.3121C10.4925 12.6225 10.6449 12.9076 10.8687 13.1314C11.0924 13.3551 11.3775 13.5075 11.6879 13.5693C11.9983 13.631 12.32 13.5993 12.6123 13.4782C12.9047 13.3571 13.1546 13.152 13.3304 12.8889C13.5062 12.6258 13.6 12.3164 13.6 12C13.6 11.5756 13.4315 11.1687 13.1314 10.8686C12.8314 10.5686 12.4244 10.4 12 10.4ZM6.40005 10.4C6.0836 10.4 5.77426 10.4938 5.51114 10.6696C5.24802 10.8455 5.04294 11.0953 4.92184 11.3877C4.80074 11.6801 4.76906 12.0018 4.83079 12.3121C4.89253 12.6225 5.04491 12.9076 5.26868 13.1314C5.49244 13.3551 5.77754 13.5075 6.08791 13.5693C6.39827 13.631 6.71998 13.5993 7.01234 13.4782C7.30471 13.3571 7.55459 13.152 7.7304 12.8889C7.90621 12.6258 8.00005 12.3164 8.00005 12C8.00005 11.5756 7.83148 11.1687 7.53142 10.8686C7.23136 10.5686 6.8244 10.4 6.40005 10.4ZM17.6 10.4C17.2836 10.4 16.9743 10.4938 16.7111 10.6696C16.448 10.8455 16.2429 11.0953 16.1218 11.3877C16.0007 11.6801 15.9691 12.0018 16.0308 12.3121C16.0925 12.6225 16.2449 12.9076 16.4687 13.1314C16.6924 13.3551 16.9775 13.5075 17.2879 13.5693C17.5983 13.631 17.92 13.5993 18.2123 13.4782C18.5047 13.3571 18.7546 13.152 18.9304 12.8889C19.1062 12.6258 19.2 12.3164 19.2 12C19.2 11.5756 19.0315 11.1687 18.7314 10.8686C18.4314 10.5686 18.0244 10.4 17.6 10.4Z" fill="#333333"/>
</svg>
