<svg width="30" height="30" viewBox="0 0 30 30" fill="none" xmlns="http://www.w3.org/2000/svg">
<path d="M21 16.18V13C20.9986 11.5831 20.4958 10.2125 19.5806 9.13077C18.6655 8.04908 17.3971 7.32615 16 7.09V6C16 5.73478 15.8946 5.48043 15.7071 5.29289C15.5196 5.10536 15.2652 5 15 5C14.7348 5 14.4804 5.10536 14.2929 5.29289C14.1054 5.48043 14 5.73478 14 6V7.09C12.6029 7.32615 11.3345 8.04908 10.4194 9.13077C9.50425 10.2125 9.00144 11.5831 9 13V16.18C8.41645 16.3863 7.911 16.7681 7.55294 17.2729C7.19488 17.7778 7.00174 18.3811 7 19V21C7 21.2652 7.10536 21.5196 7.29289 21.7071C7.48043 21.8946 7.73478 22 8 22H11.14C11.3703 22.8474 11.873 23.5954 12.5706 24.1287C13.2682 24.6621 14.1219 24.951 15 24.951C15.8781 24.951 16.7318 24.6621 17.4294 24.1287C18.127 23.5954 18.6297 22.8474 18.86 22H22C22.2652 22 22.5196 21.8946 22.7071 21.7071C22.8946 21.5196 23 21.2652 23 21V19C22.9983 18.3811 22.8051 17.7778 22.4471 17.2729C22.089 16.7681 21.5835 16.3863 21 16.18ZM11 13C11 11.9391 11.4214 10.9217 12.1716 10.1716C12.9217 9.42143 13.9391 9 15 9C16.0609 9 17.0783 9.42143 17.8284 10.1716C18.5786 10.9217 19 11.9391 19 13V16H11V13ZM15 23C14.651 22.9979 14.3086 22.9045 14.0068 22.7291C13.7051 22.5536 13.4545 22.3023 13.28 22H16.72C16.5455 22.3023 16.2949 22.5536 15.9932 22.7291C15.6914 22.9045 15.349 22.9979 15 23ZM21 20H9V19C9 18.7348 9.10536 18.4804 9.29289 18.2929C9.48043 18.1054 9.73478 18 10 18H20C20.2652 18 20.5196 18.1054 20.7071 18.2929C20.8946 18.4804 21 18.7348 21 19V20Z" fill="#333333"/>
<circle cx="20.5" cy="10.5" r="4.5" fill="#FF6364"/>
</svg>
