<svg width="24" height="24" viewBox="0 0 24 24" fill="none" xmlns="http://www.w3.org/2000/svg">
<path d="M18.8034 17.8197L16.208 15.2433C17.2154 13.9862 17.7033 12.3906 17.5713 10.7845C17.4393 9.17843 16.6974 7.68402 15.4983 6.60855C14.2991 5.53307 12.7337 4.95828 11.124 5.00236C9.51437 5.04644 7.98276 5.70604 6.84413 6.84553C5.7055 7.98503 5.0464 9.5178 5.00236 11.1287C4.95831 12.7396 5.53267 14.3061 6.60733 15.5062C7.68198 16.7063 9.17526 17.4488 10.7801 17.5809C12.3849 17.713 13.9794 17.2247 15.2355 16.2165L17.81 18.7929C17.8751 18.8585 17.9524 18.9106 18.0377 18.9462C18.1229 18.9817 18.2144 19 18.3067 19C18.3991 19 18.4905 18.9817 18.5758 18.9462C18.661 18.9106 18.7384 18.8585 18.8034 18.7929C18.9295 18.6624 19 18.4879 19 18.3063C19 18.1248 18.9295 17.9503 18.8034 17.8197ZM11.3109 16.2165C10.3423 16.2165 9.39552 15.9291 8.5902 15.3905C7.78488 14.852 7.15721 14.0866 6.78656 13.1911C6.41591 12.2956 6.31893 11.3102 6.50789 10.3596C6.69684 9.40891 7.16324 8.53567 7.84811 7.85028C8.53298 7.16489 9.40556 6.69813 10.3555 6.50903C11.3054 6.31993 12.2901 6.41699 13.1849 6.78792C14.0797 7.15885 14.8446 7.787 15.3827 8.59293C15.9208 9.39886 16.208 10.3464 16.208 11.3157C16.208 12.6154 15.692 13.862 14.7736 14.7811C13.8553 15.7001 12.6097 16.2165 11.3109 16.2165Z" fill="#333333"/>
</svg>
