<svg width="24" height="24" viewBox="0 0 24 24" fill="none" xmlns="http://www.w3.org/2000/svg">
<path d="M12.4275 16.232C12.287 16.083 12.0969 15.9994 11.8987 15.9994C11.7006 15.9994 11.5105 16.083 11.37 16.232C11.2999 16.3081 11.2439 16.3977 11.205 16.496C11.1352 16.6918 11.1352 16.9082 11.205 17.104C11.2458 17.2012 11.3015 17.2905 11.37 17.368C11.4391 17.44 11.5206 17.497 11.61 17.536C11.7025 17.578 11.802 17.5998 11.9025 17.6C12.0253 17.5993 12.1461 17.5665 12.2543 17.5044C12.3625 17.4423 12.4547 17.3528 12.5228 17.2438C12.5909 17.1347 12.6329 17.0095 12.6451 16.8792C12.6572 16.7488 12.6392 16.6172 12.5925 16.496C12.5564 16.3961 12.5 16.306 12.4275 16.232ZM18 9.552C17.9922 9.47851 17.9771 9.4061 17.955 9.336V9.264C17.9189 9.18174 17.8708 9.10613 17.8125 9.04L13.3125 4.24C13.2505 4.17777 13.1796 4.12646 13.1025 4.088H13.035C12.9588 4.04139 12.8747 4.01148 12.7875 4H8.25C7.65326 4 7.08097 4.25286 6.65901 4.70294C6.23705 5.15303 6 5.76348 6 6.4V17.6C6 18.2365 6.23705 18.847 6.65901 19.2971C7.08097 19.7471 7.65326 20 8.25 20H15.75C16.3467 20 16.919 19.7471 17.341 19.2971C17.7629 18.847 18 18.2365 18 17.6V9.6V9.552ZM13.5 6.728L15.4425 8.8H14.25C14.0511 8.8 13.8603 8.71571 13.7197 8.56569C13.579 8.41566 13.5 8.21217 13.5 8V6.728ZM16.5 17.6C16.5 17.8122 16.421 18.0157 16.2803 18.1657C16.1397 18.3157 15.9489 18.4 15.75 18.4H8.25C8.05109 18.4 7.86032 18.3157 7.71967 18.1657C7.57902 18.0157 7.5 17.8122 7.5 17.6V6.4C7.5 6.18783 7.57902 5.98434 7.71967 5.83431C7.86032 5.68429 8.05109 5.6 8.25 5.6H12V8C12 8.63652 12.2371 9.24697 12.659 9.69706C13.081 10.1471 13.6533 10.4 14.25 10.4H16.5V17.6ZM11.9025 10.4C11.5073 10.3997 11.119 10.5105 10.7767 10.7212C10.4344 10.9318 10.1501 11.2349 9.9525 11.6C9.89824 11.6911 9.8618 11.7929 9.84538 11.8993C9.82896 12.0058 9.83291 12.1147 9.85697 12.2195C9.88104 12.3243 9.92473 12.4228 9.98541 12.5091C10.0461 12.5955 10.1225 12.6678 10.2101 12.7218C10.2977 12.7758 10.3946 12.8103 10.495 12.8233C10.5954 12.8364 10.6973 12.8276 10.7944 12.7975C10.8915 12.7674 10.982 12.7167 11.0603 12.6484C11.1386 12.5801 11.2031 12.4956 11.25 12.4C11.3161 12.2779 11.4112 12.1766 11.5258 12.1064C11.6404 12.0361 11.7703 11.9994 11.9025 12C12.1014 12 12.2922 12.0843 12.4328 12.2343C12.5735 12.3843 12.6525 12.5878 12.6525 12.8C12.6525 13.0122 12.5735 13.2157 12.4328 13.3657C12.2922 13.5157 12.1014 13.6 11.9025 13.6C11.7036 13.6 11.5128 13.6843 11.3722 13.8343C11.2315 13.9843 11.1525 14.1878 11.1525 14.4C11.1525 14.6122 11.2315 14.8157 11.3722 14.9657C11.5128 15.1157 11.7036 15.2 11.9025 15.2C12.4992 15.2 13.0715 14.9471 13.4935 14.4971C13.9154 14.047 14.1525 13.4365 14.1525 12.8C14.1525 12.1635 13.9154 11.553 13.4935 11.1029C13.0715 10.6529 12.4992 10.4 11.9025 10.4Z" fill="#666666"/>
</svg>
