<?xml version="1.0" standalone="no"?><!DOCTYPE svg PUBLIC "-//W3C//DTD SVG 1.1//EN" "http://www.w3.org/Graphics/SVG/1.1/DTD/svg11.dtd"><svg t="1610149033742" class="icon" viewBox="0 0 1024 1024" version="1.1" xmlns="http://www.w3.org/2000/svg" p-id="796" xmlns:xlink="http://www.w3.org/1999/xlink" width="200" height="200"><defs><style type="text/css"></style></defs><path d="M984.615284 945.230568c21.751488 0 39.384716 17.633228 39.384716 39.384716C1024 1006.366772 1006.366772 1024 984.615284 1024H39.384716C17.633228 1024 0 1006.366772 0 984.615284c0-21.750179 17.633228-39.384716 39.384716-39.384716h945.230568zM512 0c152.260419 0 275.691703 123.431284 275.691703 275.691703 0 152.261729-123.429974 275.693013-275.691703 275.693013-152.260419 0-275.691703-123.431284-275.691703-275.693013C236.308297 123.431284 359.738271 0 512 0z m0 78.769432c-108.757442 0-196.923581 88.166138-196.923581 196.922271 0 108.758752 88.166138 196.923581 196.923581 196.923581 108.757442 0 196.923581-88.166138 196.923581-196.923581 0-108.757442-88.166138-196.922271-196.923581-196.922271z" fill="#979797" p-id="797"></path><path d="M728.615284 630.152839c119.632532 0 216.615284 96.982752 216.615284 216.616593V1024H78.769432V846.769432c0-119.632532 96.981442-216.615284 216.615284-216.615284h433.230568z m0 78.770742H295.384716c-75.368757 0-136.611028 60.486711-137.827519 135.566076l-0.019642 2.278466v98.462445h708.923581v-98.461136c0-75.368757-60.486711-136.611028-135.566077-137.827519l-2.278466-0.018332z" fill="#979797" p-id="798"></path></svg>